<svg width="174" height="19" viewBox="0 0 174 19" fill="none" xmlns="http://www.w3.org/2000/svg">
<path d="M12.8135 0.0957031L20.6511 17.788H16.8869L14.9018 13.2495H5.38835L3.40317 17.788H0L7.86339 0.0957031H12.8135ZM6.54853 10.6085H13.7416L10.1322 2.42904L6.54853 10.6085Z" fill="white"/>
<path d="M33.7107 9.9675C33.7107 8.80511 33.3927 8.01878 32.7567 7.60852C32.1208 7.18117 31.2012 6.9675 29.9981 6.9675C28.7778 6.9675 27.7981 7.19827 27.059 7.65981C26.3371 8.12134 25.9762 8.90767 25.9762 10.0188V17.788H22.5472V4.91622H25.873V7.17263C26.3027 6.26664 27.0074 5.60852 27.9871 5.19827C28.984 4.78801 30.1098 4.58288 31.3645 4.58288C33.2036 4.58288 34.6216 4.9675 35.6185 5.73673C36.6326 6.50596 37.1396 7.78801 37.1396 9.58288V17.788H33.7107V9.9675Z" fill="white"/>
<path d="M39.236 4.91622H40.9633V0.941858H44.3923V4.91622H49.0072V7.42904H44.3923V13.5316C44.3923 14.1299 44.5384 14.5743 44.8306 14.8649C45.1228 15.1384 45.6298 15.2752 46.3517 15.2752H49.0072V17.788H44.9337C43.5243 17.788 42.5102 17.4889 41.8915 16.8906C41.2727 16.2923 40.9633 15.3179 40.9633 13.9675V7.42904H39.236V4.91622Z" fill="white"/>
<path d="M62.8523 10.5316C62.8523 9.21536 62.4742 8.29228 61.7179 7.76237C60.9617 7.21536 59.8531 6.94186 58.3921 6.94186C56.914 6.94186 55.7967 7.21536 55.0405 7.76237C54.2842 8.29228 53.9061 9.21536 53.9061 10.5316V12.1213C53.9061 13.4376 54.2842 14.3692 55.0405 14.9162C55.7967 15.4632 56.914 15.7367 58.3921 15.7367C59.8702 15.7367 60.9789 15.4632 61.7179 14.9162C62.4742 14.3692 62.8523 13.429 62.8523 12.0957V10.5316ZM50.4514 11.3521C50.4514 10.0872 50.6232 9.02733 50.967 8.17263C51.3108 7.30083 51.8178 6.59998 52.4881 6.07006C53.1584 5.54015 53.9834 5.16408 54.9631 4.94186C55.96 4.70254 57.103 4.58288 58.3921 4.58288C59.6812 4.58288 60.8156 4.70254 61.7953 4.94186C62.7922 5.16408 63.6172 5.54015 64.2703 6.07006C64.9406 6.59998 65.4477 7.30083 65.7914 8.17263C66.1352 9.02733 66.307 10.0872 66.307 11.3521C66.307 12.6342 66.1352 13.7025 65.7914 14.5572C65.4477 15.4119 64.9406 16.1043 64.2703 16.6342C63.6172 17.1641 62.7922 17.5401 61.7953 17.7624C60.8156 17.9846 59.6812 18.0957 58.3921 18.0957C57.103 18.0957 55.96 17.9846 54.9631 17.7624C53.9834 17.5401 53.1584 17.1641 52.4881 16.6342C51.8178 16.1043 51.3108 15.4119 50.967 14.5572C50.6232 13.7025 50.4514 12.6342 50.4514 11.3521Z" fill="white"/>
<path d="M80.2887 9.9675C80.2887 8.80511 79.9708 8.01878 79.3348 7.60852C78.6989 7.18117 77.7793 6.9675 76.5762 6.9675C75.3559 6.9675 74.3761 7.19827 73.6371 7.65981C72.9152 8.12134 72.5542 8.90767 72.5542 10.0188V17.788H69.1253V4.91622H72.4511V7.17263C72.8808 6.26664 73.5855 5.60852 74.5652 5.19827C75.5621 4.78801 76.6879 4.58288 77.9426 4.58288C79.7817 4.58288 81.1997 4.9675 82.1966 5.73673C83.2106 6.50596 83.7177 7.78801 83.7177 9.58288V17.788H80.2887V9.9675Z" fill="white"/>
<path d="M104.615 0.0957031C106.334 0.0957031 107.649 0.454678 108.56 1.17263C109.488 1.87348 109.952 2.9504 109.952 4.4034C109.952 5.34357 109.729 6.18117 109.282 6.91622C108.852 7.65126 108.113 8.18117 107.065 8.50596C108.234 8.79656 109.093 9.30083 109.643 10.0188C110.193 10.7196 110.468 11.6171 110.468 12.7111C110.468 14.3692 109.995 15.6342 109.05 16.506C108.122 17.3607 106.721 17.788 104.848 17.788H93.452V0.0957031H104.615ZM106.833 12.1983C106.833 11.4803 106.592 10.9248 106.111 10.5316C105.63 10.1213 104.899 9.91622 103.919 9.91622H97.0099V15.3521H103.919C105.862 15.3521 106.833 14.5658 106.833 12.9931V12.1983ZM106.291 4.63417C106.291 3.23246 105.423 2.5316 103.687 2.5316H97.0099V7.58288H103.687C104.564 7.58288 105.217 7.3863 105.647 6.99314C106.076 6.58288 106.291 6.00169 106.291 5.24955V4.63417Z" fill="white"/>
<path d="M113.157 4.91622H116.586V12.7624C116.586 13.9248 116.895 14.7111 117.514 15.1213C118.133 15.5145 119.061 15.7111 120.298 15.7111C120.866 15.7111 121.39 15.6598 121.871 15.5572C122.369 15.4547 122.799 15.2837 123.16 15.0444C123.521 14.8051 123.805 14.4974 124.011 14.1213C124.217 13.7282 124.32 13.241 124.32 12.6598V4.91622H127.749V17.788H124.398V15.5829C123.951 16.4547 123.237 17.0957 122.258 17.506C121.295 17.8991 120.178 18.0957 118.906 18.0957C117.995 18.0957 117.179 18.0102 116.457 17.8393C115.752 17.6684 115.151 17.3863 114.652 16.9931C114.171 16.5829 113.801 16.053 113.544 15.4034C113.286 14.7538 113.157 13.9504 113.157 12.9931V4.91622Z" fill="white"/>
<path d="M130.076 4.91622H131.803V0.941858H135.232V4.91622H139.847V7.42904H135.232V13.5316C135.232 14.1299 135.378 14.5743 135.67 14.8649C135.963 15.1384 136.47 15.2752 137.192 15.2752H139.847V17.788H135.774C134.364 17.788 133.35 17.4889 132.731 16.8906C132.113 16.2923 131.803 15.3179 131.803 13.9675V7.42904H130.076V4.91622Z" fill="white"/>
<path d="M153.692 10.5316C153.692 9.21536 153.314 8.29228 152.558 7.76237C151.802 7.21536 150.693 6.94186 149.232 6.94186C147.754 6.94186 146.637 7.21536 145.88 7.76237C145.124 8.29228 144.746 9.21536 144.746 10.5316V12.1213C144.746 13.4376 145.124 14.3692 145.88 14.9162C146.637 15.4632 147.754 15.7367 149.232 15.7367C150.71 15.7367 151.819 15.4632 152.558 14.9162C153.314 14.3692 153.692 13.429 153.692 12.0957V10.5316ZM141.291 11.3521C141.291 10.0872 141.463 9.02733 141.807 8.17263C142.151 7.30083 142.658 6.59998 143.328 6.07006C143.998 5.54015 144.823 5.16408 145.803 4.94186C146.8 4.70254 147.943 4.58288 149.232 4.58288C150.521 4.58288 151.655 4.70254 152.635 4.94186C153.632 5.16408 154.457 5.54015 155.11 6.07006C155.78 6.59998 156.288 7.30083 156.631 8.17263C156.975 9.02733 157.147 10.0872 157.147 11.3521C157.147 12.6342 156.975 13.7025 156.631 14.5572C156.288 15.4119 155.78 16.1043 155.11 16.6342C154.457 17.1641 153.632 17.5401 152.635 17.7624C151.655 17.9846 150.521 18.0957 149.232 18.0957C147.943 18.0957 146.8 17.9846 145.803 17.7624C144.823 17.5401 143.998 17.1641 143.328 16.6342C142.658 16.1043 142.151 15.4119 141.807 14.5572C141.463 13.7025 141.291 12.6342 141.291 11.3521Z" fill="white"/>
<path d="M174 4.91622L168.044 17.788H164.023L157.912 4.91622H161.444L166.214 15.1213L170.855 4.91622H174Z" fill="white"/>
</svg>
